<svg width="1919" height="949" viewBox="0 0 1919 949" fill="none" xmlns="http://www.w3.org/2000/svg">
<path d="M-1 832.5L171.317 909.197C279.505 957.351 402.542 959.836 512.586 916.09L539.244 905.492C634.521 867.616 741.187 870.616 834.184 913.789C931.049 958.757 1042.54 960.063 1140.43 917.376L1151.97 912.343C1249.18 869.954 1359.22 867.787 1458.02 906.317L1471.8 911.693C1590.33 957.916 1723.12 950.182 1835.48 890.511L1919 846.157C1919 378.838 1540.16 0 1072.84 0H831.5C371.723 0 -0.999996 372.723 -1 832.5Z" fill="url(#paint0_linear_1175_1332)"/>
<defs>
<linearGradient id="paint0_linear_1175_1332" x1="752.6" y1="984.5" x2="1306.01" y2="187.664" gradientUnits="userSpaceOnUse">
<stop stop-color="#08B359"/>
<stop offset="1" stop-color="#F3E51A"/>
</linearGradient>
</defs>
</svg>
