<svg width="87" height="66" viewBox="0 0 87 66" fill="none" xmlns="http://www.w3.org/2000/svg">
<path d="M53.647 30.3723C52.9789 31.2213 52.2342 32.001 51.4234 32.7006C48.2732 35.4559 44.4189 36.5813 41.1428 35.712V35.6654C39.4602 32.3436 39.6603 28.1293 41.5801 24.2952C42.0696 23.3292 42.6533 22.4189 43.3219 21.5788C43.611 21.214 43.9075 20.8647 44.2188 20.531C45.1779 19.4924 46.2647 18.592 47.4505 17.8534C49.95 16.1966 52.9661 15.6206 55.8632 16.2468H55.9596C56.617 17.6327 56.9715 19.1545 56.9973 20.7018C57.028 22.2677 56.7998 23.8274 56.3228 25.3119C55.7312 27.1546 54.8245 28.8693 53.647 30.3723Z" stroke="#10B981" stroke-miterlimit="10"/>
<path d="M40 37L40.0298 36.9615L43.0512 32.9971L46.4744 28.5015L49.5181 24.5139L52.6065 20.4571L56 16" stroke="#10B981" stroke-miterlimit="10"/>
<path d="M53 31L45 30" stroke="#10B981" stroke-miterlimit="10"/>
<path d="M42 23L45 30" stroke="#10B981" stroke-miterlimit="10"/>
<path d="M56 26L50 24" stroke="#10B981" stroke-miterlimit="10"/>
<path d="M47 18L50 24" stroke="#10B981" stroke-miterlimit="10"/>
<path d="M69.3 57.2205C62.7095 61.6637 55.0344 64.2302 47.0968 64.6451C39.1593 65.06 31.2584 63.3076 24.2406 59.5758C17.2228 55.8439 11.3524 50.2731 7.25842 43.4602C3.16442 36.6473 1.00103 28.8489 1 20.9005C0.999392 17.4107 1.41227 13.9332 2.23 10.5405" stroke="#10B981" stroke-miterlimit="10"/>
<path d="M20.4858 12.0303L19.3781 12.0039L22.7898 3.35549L23.8804 3.38149L26.876 12.1827L25.7684 12.1563L23.3363 4.74959L23.2681 4.74797L20.4858 12.0303ZM20.976 8.63194L25.4406 8.73838L25.4183 9.67562L20.9537 9.56917L20.976 8.63194Z" fill="#10B981"/>
<path d="M20.4858 12.0303L20.4619 13.03L21.1679 13.0469L21.4199 12.3872L20.4858 12.0303ZM19.3781 12.0039L18.4479 11.6369L17.9222 12.9695L19.3543 13.0036L19.3781 12.0039ZM22.7898 3.35549L22.8136 2.35577L22.1157 2.33913L21.8595 2.98853L22.7898 3.35549ZM23.8804 3.38149L24.8271 3.05928L24.6021 2.39841L23.9042 2.38177L23.8804 3.38149ZM26.876 12.1827L26.8522 13.1824L28.2842 13.2165L27.8227 11.8604L26.876 12.1827ZM25.7684 12.1563L24.8183 12.4682L25.0386 13.1391L25.7445 13.156L25.7684 12.1563ZM23.3363 4.74959L24.2863 4.43761L24.066 3.76671L23.3601 3.74988L23.3363 4.74959ZM23.2681 4.74797L23.2919 3.74825L22.586 3.73142L22.334 4.39107L23.2681 4.74797ZM20.976 8.63194L20.9998 7.63222L20.0001 7.60839L19.9763 8.60811L20.976 8.63194ZM25.4406 8.73838L26.4404 8.76222L26.4642 7.7625L25.4645 7.73867L25.4406 8.73838ZM25.4183 9.67562L25.3945 10.6753L26.3942 10.6992L26.418 9.69945L25.4183 9.67562ZM20.9537 9.56917L19.9539 9.54534L19.9301 10.5451L20.9298 10.5689L20.9537 9.56917ZM20.5096 11.0306L19.402 11.0042L19.3543 13.0036L20.4619 13.03L20.5096 11.0306ZM20.3084 12.3709L23.72 3.72245L21.8595 2.98853L18.4479 11.6369L20.3084 12.3709ZM22.7659 4.3552L23.8565 4.38121L23.9042 2.38177L22.8136 2.35577L22.7659 4.3552ZM22.9337 3.7037L25.9293 12.5049L27.8227 11.8604L24.8271 3.05928L22.9337 3.7037ZM26.8998 11.1829L25.7922 11.1565L25.7445 13.156L26.8522 13.1824L26.8998 11.1829ZM26.7185 11.8443L24.2863 4.43761L22.3862 5.06157L24.8183 12.4682L26.7185 11.8443ZM23.3601 3.74988L23.2919 3.74825L23.2443 5.74768L23.3124 5.74931L23.3601 3.74988ZM22.334 4.39107L19.5516 11.6734L21.4199 12.3872L24.2022 5.10487L22.334 4.39107ZM20.9522 9.63166L25.4168 9.7381L25.4645 7.73867L20.9998 7.63222L20.9522 9.63166ZM24.4409 8.71455L24.4186 9.65178L26.418 9.69945L26.4404 8.76222L24.4409 8.71455ZM25.4421 8.6759L20.9775 8.56946L20.9298 10.5689L25.3945 10.6753L25.4421 8.6759ZM21.9534 9.59301L21.9757 8.65577L19.9763 8.60811L19.9539 9.54534L21.9534 9.59301Z" fill="#10B981"/>
<path d="M35.1831 3.41309L35.029 12.139L34.0064 12.1209L29.3725 5.18575L29.2873 5.18425L29.1663 12.0355L28.1096 12.0168L28.2638 3.29088L29.2863 3.30894L33.937 10.2615L34.0222 10.263L34.1435 3.39473L35.1831 3.41309Z" fill="#10B981"/>
<path d="M35.1831 3.41309L36.183 3.43075L36.2006 2.43091L35.2008 2.41325L35.1831 3.41309ZM35.029 12.139L35.0113 13.1388L36.0112 13.1565L36.0289 12.1567L35.029 12.139ZM34.0064 12.1209L33.175 12.6765L33.4657 13.1115L33.9888 13.1208L34.0064 12.1209ZM29.3725 5.18575L30.204 4.63019L29.9133 4.19515L29.3902 4.18591L29.3725 5.18575ZM29.2873 5.18425L29.305 4.18441L28.3051 4.16675L28.2874 5.16659L29.2873 5.18425ZM29.1663 12.0355L29.1486 13.0353L30.1485 13.053L30.1661 12.0531L29.1663 12.0355ZM28.1096 12.0168L27.1098 11.9991L27.0921 12.999L28.092 13.0166L28.1096 12.0168ZM28.2638 3.29088L28.2814 2.29104L27.2816 2.27338L27.2639 3.27322L28.2638 3.29088ZM29.2863 3.30894L30.1175 2.75294L29.8268 2.31833L29.304 2.3091L29.2863 3.30894ZM33.937 10.2615L33.1058 10.8175L33.3965 11.2521L33.9193 11.2613L33.937 10.2615ZM34.0222 10.263L34.0045 11.2628L35.0044 11.2805L35.0221 10.2806L34.0222 10.263ZM34.1435 3.39473L34.1612 2.39488L33.1613 2.37723L33.1437 3.37707L34.1435 3.39473ZM34.1833 3.39543L34.0292 12.1213L36.0289 12.1567L36.183 3.43075L34.1833 3.39543ZM35.0467 11.1392L34.0241 11.1211L33.9888 13.1208L35.0113 13.1388L35.0467 11.1392ZM34.8379 11.5654L30.204 4.63019L28.541 5.74132L33.175 12.6765L34.8379 11.5654ZM29.3902 4.18591L29.305 4.18441L29.2696 6.18409L29.3548 6.1856L29.3902 4.18591ZM28.2874 5.16659L28.1664 12.0178L30.1661 12.0531L30.2871 5.20191L28.2874 5.16659ZM29.1839 11.0356L28.1273 11.0169L28.092 13.0166L29.1486 13.0353L29.1839 11.0356ZM29.1095 12.0345L29.2636 3.30854L27.2639 3.27322L27.1098 11.9991L29.1095 12.0345ZM28.2461 4.29072L29.2687 4.30878L29.304 2.3091L28.2814 2.29104L28.2461 4.29072ZM28.4551 3.86494L33.1058 10.8175L34.7682 9.70548L30.1175 2.75294L28.4551 3.86494ZM33.9193 11.2613L34.0045 11.2628L34.0399 9.26313L33.9547 9.26163L33.9193 11.2613ZM35.0221 10.2806L35.1434 3.41239L33.1437 3.37707L33.0224 10.2453L35.0221 10.2806ZM34.1259 4.39457L35.1655 4.41293L35.2008 2.41325L34.1612 2.39488L34.1259 4.39457Z" fill="#10B981"/>
<path d="M37.0713 12.005L37.1135 3.2778L42.3805 3.30327L42.3759 4.24076L38.1658 4.2204L38.1515 7.16923L42.089 7.18827L42.0844 8.12576L38.147 8.10672L38.1326 11.0726L42.411 11.0933L42.4064 12.0308L37.0713 12.005Z" fill="#10B981"/>
<path d="M37.0713 12.005L36.0713 12.0001L36.0665 13.0001L37.0664 13.005L37.0713 12.005ZM37.1135 3.2778L37.1183 2.27781L36.1183 2.27298L36.1135 3.27296L37.1135 3.2778ZM42.3805 3.30327L43.3805 3.30811L43.3853 2.30812L42.3853 2.30328L42.3805 3.30327ZM42.3759 4.24076L42.3711 5.24075L43.3711 5.24558L43.3759 4.2456L42.3759 4.24076ZM38.1658 4.2204L38.1706 3.22041L37.1706 3.21558L37.1658 4.21556L38.1658 4.2204ZM38.1515 7.16923L37.1515 7.16439L37.1467 8.16438L38.1467 8.16922L38.1515 7.16923ZM42.089 7.18827L43.0889 7.19311L43.0938 6.19312L42.0938 6.18828L42.089 7.18827ZM42.0844 8.12576L42.0796 9.12575L43.0796 9.13058L43.0844 8.1306L42.0844 8.12576ZM38.147 8.10672L38.1518 7.10673L37.1518 7.10189L37.147 8.10188L38.147 8.10672ZM38.1326 11.0726L37.1326 11.0678L37.1278 12.0677L38.1278 12.0726L38.1326 11.0726ZM42.411 11.0933L43.411 11.0981L43.4158 10.0981L42.4158 10.0933L42.411 11.0933ZM42.4064 12.0308L42.4016 13.0308L43.4016 13.0356L43.4064 12.0356L42.4064 12.0308ZM38.0713 12.0098L38.1135 3.28264L36.1135 3.27296L36.0713 12.0001L38.0713 12.0098ZM37.1087 4.27779L42.3756 4.30326L42.3853 2.30328L37.1183 2.27781L37.1087 4.27779ZM41.3805 3.29844L41.376 4.23592L43.3759 4.2456L43.3805 3.30811L41.3805 3.29844ZM42.3808 3.24077L38.1706 3.22041L38.1609 5.22039L42.3711 5.24075L42.3808 3.24077ZM37.1658 4.21556L37.1515 7.16439L39.1515 7.17406L39.1657 4.22524L37.1658 4.21556ZM38.1467 8.16922L42.0841 8.18826L42.0938 6.18828L38.1563 6.16924L38.1467 8.16922ZM41.089 7.18343L41.0844 8.12092L43.0844 8.1306L43.0889 7.19311L41.089 7.18343ZM42.0893 7.12577L38.1518 7.10673L38.1421 9.10671L42.0796 9.12575L42.0893 7.12577ZM37.147 8.10188L37.1326 11.0678L39.1326 11.0774L39.147 8.11155L37.147 8.10188ZM38.1278 12.0726L42.4061 12.0933L42.4158 10.0933L38.1375 10.0726L38.1278 12.0726ZM41.411 11.0884L41.4065 12.0259L43.4064 12.0356L43.411 11.0981L41.411 11.0884ZM42.4113 11.0308L37.0761 11.005L37.0664 13.005L42.4016 13.0308L42.4113 11.0308Z" fill="#10B981"/>
<path d="M43.6355 4.30859L43.623 3.37117L50.1679 3.2841L50.1804 4.22151L47.4363 4.25802L47.5399 12.0471L46.4832 12.0612L46.3796 4.27208L43.6355 4.30859Z" fill="black"/>
<path d="M43.6355 4.30859L42.6356 4.32189L42.6489 5.3218L43.6488 5.3085L43.6355 4.30859ZM43.623 3.37117L43.6097 2.37126L42.6098 2.38456L42.6231 3.38448L43.623 3.37117ZM50.1679 3.2841L51.1678 3.27079L51.1545 2.27088L50.1546 2.28419L50.1679 3.2841ZM50.1804 4.22151L50.1937 5.22143L51.1936 5.20812L51.1803 4.20821L50.1804 4.22151ZM47.4363 4.25802L47.423 3.25811L46.4231 3.27141L46.4364 4.27133L47.4363 4.25802ZM47.5399 12.0471L47.5532 13.047L48.5531 13.0337L48.5398 12.0338L47.5399 12.0471ZM46.4832 12.0612L45.4833 12.0745L45.4966 13.0744L46.4965 13.0611L46.4832 12.0612ZM46.3796 4.27208L47.3795 4.25878L47.3662 3.25887L46.3663 3.27217L46.3796 4.27208ZM44.6354 4.29529L44.6229 3.35787L42.6231 3.38448L42.6356 4.32189L44.6354 4.29529ZM43.6363 4.37108L50.1812 4.28401L50.1546 2.28419L43.6097 2.37126L43.6363 4.37108ZM49.168 3.2974L49.1805 4.23482L51.1803 4.20821L51.1678 3.27079L49.168 3.2974ZM50.1671 3.2216L47.423 3.25811L47.4496 5.25793L50.1937 5.22143L50.1671 3.2216ZM46.4364 4.27133L46.54 12.0604L48.5398 12.0338L48.4362 4.24472L46.4364 4.27133ZM47.5266 11.0472L46.4699 11.0613L46.4965 13.0611L47.5532 13.047L47.5266 11.0472ZM47.4831 12.0479L47.3795 4.25878L45.3797 4.28538L45.4833 12.0745L47.4831 12.0479ZM46.3663 3.27217L43.6222 3.30868L43.6488 5.3085L46.3929 5.27199L46.3663 3.27217Z" fill="#10B981"/>
<path d="M78.1136 41.2727V50H77.0568V41.2727H78.1136Z" fill="black"/>
<path d="M78.1136 41.2727H79.1136V40.2727H78.1136V41.2727ZM78.1136 50V51H79.1136V50H78.1136ZM77.0568 50H76.0568V51H77.0568V50ZM77.0568 41.2727V40.2727H76.0568V41.2727H77.0568ZM77.1136 41.2727V50H79.1136V41.2727H77.1136ZM78.1136 49H77.0568V51H78.1136V49ZM78.0568 50V41.2727H76.0568V50H78.0568ZM77.0568 42.2727H78.1136V40.2727H77.0568V42.2727Z" fill="#10B981"/>
<path d="M58.0795 44H57.0227C56.9602 43.696 56.8509 43.429 56.6946 43.1989C56.5412 42.9688 56.3537 42.7756 56.1321 42.6193C55.9134 42.4602 55.6705 42.3409 55.4034 42.2614C55.1364 42.1818 54.858 42.142 54.5682 42.142C54.0398 42.142 53.5611 42.2756 53.1321 42.5426C52.706 42.8097 52.3665 43.2031 52.1136 43.723C51.8636 44.2429 51.7386 44.8807 51.7386 45.6364C51.7386 46.392 51.8636 47.0298 52.1136 47.5497C52.3665 48.0696 52.706 48.4631 53.1321 48.7301C53.5611 48.9972 54.0398 49.1307 54.5682 49.1307C54.858 49.1307 55.1364 49.0909 55.4034 49.0114C55.6705 48.9318 55.9134 48.8139 56.1321 48.6577C56.3537 48.4986 56.5412 48.304 56.6946 48.0739C56.8509 47.8409 56.9602 47.5739 57.0227 47.2727H58.0795C58 47.7187 57.8551 48.1179 57.6449 48.4702C57.4347 48.8224 57.1733 49.1222 56.8608 49.3693C56.5483 49.6136 56.1974 49.7997 55.8082 49.9276C55.4219 50.0554 55.0085 50.1193 54.5682 50.1193C53.8239 50.1193 53.1619 49.9375 52.5824 49.5739C52.0028 49.2102 51.5469 48.6932 51.2145 48.0227C50.8821 47.3523 50.7159 46.5568 50.7159 45.6364C50.7159 44.7159 50.8821 43.9205 51.2145 43.25C51.5469 42.5795 52.0028 42.0625 52.5824 41.6989C53.1619 41.3352 53.8239 41.1534 54.5682 41.1534C55.0085 41.1534 55.4219 41.2173 55.8082 41.3452C56.1974 41.473 56.5483 41.6605 56.8608 41.9077C57.1733 42.152 57.4347 42.4503 57.6449 42.8026C57.8551 43.152 58 43.5511 58.0795 44Z" fill="#10B981"/>
<path d="M58.0795 44V45H59.2723L59.0642 43.8255L58.0795 44ZM57.0227 44L56.0432 44.2014L56.2074 45H57.0227V44ZM56.6946 43.1989L55.8625 43.7536L55.8673 43.7606L56.6946 43.1989ZM56.1321 42.6193L55.5439 43.4281L55.5498 43.4324L55.5558 43.4366L56.1321 42.6193ZM55.4034 42.2614L55.1179 43.2197L55.1179 43.2197L55.4034 42.2614ZM53.1321 42.5426L52.6036 41.6937L52.6011 41.6953L53.1321 42.5426ZM52.1136 43.723L51.2143 43.2856L51.2124 43.2896L52.1136 43.723ZM52.1136 47.5497L51.2124 47.9831L51.2143 47.9871L52.1136 47.5497ZM53.1321 48.7301L52.6011 49.5775L52.6036 49.5791L53.1321 48.7301ZM55.4034 49.0114L55.1179 48.053L55.1179 48.053L55.4034 49.0114ZM56.1321 48.6577L56.7133 49.4714L56.7153 49.47L56.1321 48.6577ZM56.6946 48.0739L55.8641 47.5168L55.8626 47.5192L56.6946 48.0739ZM57.0227 47.2727V46.2727H56.209L56.0436 47.0695L57.0227 47.2727ZM58.0795 47.2727L59.064 47.4483L59.2737 46.2727H58.0795V47.2727ZM57.6449 48.4702L56.7862 47.9577L56.7862 47.9577L57.6449 48.4702ZM56.8608 49.3693L57.4767 50.1571L57.4811 50.1537L56.8608 49.3693ZM55.8082 49.9276L55.4962 48.9775L55.4941 48.9782L55.8082 49.9276ZM52.5824 49.5739L52.0509 50.4209L52.0509 50.4209L52.5824 49.5739ZM51.2145 48.0227L52.1104 47.5786L52.1104 47.5786L51.2145 48.0227ZM55.8082 41.3452L55.4941 42.2946L55.4962 42.2952L55.8082 41.3452ZM56.8608 41.9077L56.2404 42.692L56.2449 42.6955L56.8608 41.9077ZM57.6449 42.8026L56.7862 43.315L56.788 43.3181L57.6449 42.8026ZM58.0795 43H57.0227V45H58.0795V43ZM58.0022 43.7986C57.9163 43.3806 57.7602 42.9881 57.5219 42.6371L55.8673 43.7606C55.9415 43.8699 56.0042 44.0115 56.0432 44.2014L58.0022 43.7986ZM57.5267 42.6442C57.3063 42.3136 57.0327 42.0308 56.7084 41.8021L55.5558 43.4366C55.6747 43.5204 55.7761 43.6239 55.8626 43.7536L57.5267 42.6442ZM56.7203 41.8106C56.4071 41.5828 56.0613 41.4139 55.6889 41.303L55.1179 43.2197C55.2796 43.2679 55.4196 43.3377 55.5439 43.4281L56.7203 41.8106ZM55.6889 41.303C55.3255 41.1947 54.9507 41.142 54.5682 41.142V43.142C54.7652 43.142 54.9472 43.1689 55.1179 43.2197L55.6889 41.303ZM54.5682 41.142C53.8619 41.142 53.1986 41.3233 52.6036 41.6937L53.6606 43.3916C53.9235 43.2279 54.2176 43.142 54.5682 43.142V41.142ZM52.6011 41.6953C51.9936 42.0759 51.5366 42.623 51.2143 43.2857L53.0129 44.1604C53.1964 43.7832 53.4183 43.5434 53.6631 43.39L52.6011 41.6953ZM51.2124 43.2896C50.8805 43.9799 50.7386 44.7753 50.7386 45.6364H52.7386C52.7386 44.9861 52.8468 44.5059 53.0149 44.1564L51.2124 43.2896ZM50.7386 45.6364C50.7386 46.4975 50.8805 47.2928 51.2124 47.9831L53.0149 47.1163C52.8468 46.7668 52.7386 46.2866 52.7386 45.6364H50.7386ZM51.2143 47.9871C51.5366 48.6497 51.9936 49.1968 52.6011 49.5775L53.6631 47.8828C53.4183 47.7294 53.1964 47.4895 53.0129 47.1124L51.2143 47.9871ZM52.6036 49.5791C53.1986 49.9495 53.8619 50.1307 54.5682 50.1307V48.1307C54.2176 48.1307 53.9235 48.0449 53.6606 47.8812L52.6036 49.5791ZM54.5682 50.1307C54.9507 50.1307 55.3255 50.078 55.6889 49.9697L55.1179 48.053C54.9472 48.1038 54.7652 48.1307 54.5682 48.1307V50.1307ZM55.6889 49.9697C56.0579 49.8598 56.4014 49.6942 56.7133 49.4714L55.5509 47.8439C55.4253 47.9336 55.283 48.0038 55.1179 48.053L55.6889 49.9697ZM56.7153 49.47C57.036 49.2397 57.3074 48.9574 57.5267 48.6286L55.8626 47.5192C55.775 47.6505 55.6713 47.7574 55.5489 47.8453L56.7153 49.47ZM57.5251 48.6309C57.7599 48.2808 57.9157 47.8913 58.0019 47.4759L56.0436 47.0695C56.0048 47.2565 55.9418 47.401 55.8641 47.5168L57.5251 48.6309ZM57.0227 48.2727H58.0795V46.2727H57.0227V48.2727ZM57.0951 47.0972C57.0345 47.4366 56.9283 47.7195 56.7862 47.9577L58.5036 48.9826C58.7819 48.5163 58.9655 48.0009 59.064 47.4483L57.0951 47.0972ZM56.7862 47.9577C56.6363 48.2088 56.4548 48.4155 56.2405 48.585L57.4811 50.1537C57.8918 49.8289 58.233 49.4361 58.5036 48.9826L56.7862 47.9577ZM56.2449 48.5815C56.0265 48.7522 55.7791 48.8846 55.4962 48.9775L56.1203 50.8776C56.6158 50.7149 57.0701 50.475 57.4767 50.1571L56.2449 48.5815ZM55.4941 48.9782C55.2171 49.0698 54.9105 49.1193 54.5682 49.1193V51.1193C55.1065 51.1193 55.6267 51.0409 56.1224 50.8769L55.4941 48.9782ZM54.5682 49.1193C53.9947 49.1193 53.5202 48.9818 53.1139 48.7268L52.0509 50.4209C52.8036 50.8932 53.653 51.1193 54.5682 51.1193V49.1193ZM53.1139 48.7268C52.7052 48.4704 52.3688 48.0997 52.1104 47.5786L50.3185 48.4669C50.725 49.2867 51.3005 49.9501 52.0509 50.4209L53.1139 48.7268ZM52.1104 47.5786C51.8604 47.0743 51.7159 46.4375 51.7159 45.6364H49.7159C49.7159 46.6761 49.9038 47.6303 50.3185 48.4669L52.1104 47.5786ZM51.7159 45.6364C51.7159 44.8352 51.8604 44.1985 52.1104 43.6942L50.3185 42.8058C49.9038 43.6425 49.7159 44.5966 49.7159 45.6364H51.7159ZM52.1104 43.6942C52.3688 43.173 52.7052 42.8024 53.1139 42.5459L52.0509 40.8518C51.3005 41.3226 50.725 41.9861 50.3185 42.8058L52.1104 43.6942ZM53.1139 42.5459C53.5202 42.291 53.9947 42.1534 54.5682 42.1534V40.1534C53.653 40.1534 52.8036 40.3795 52.0509 40.8518L53.1139 42.5459ZM54.5682 42.1534C54.9105 42.1534 55.2171 42.2029 55.4941 42.2945L56.1224 40.3958C55.6267 40.2318 55.1065 40.1534 54.5682 40.1534V42.1534ZM55.4962 42.2952C55.7769 42.3874 56.0228 42.5198 56.2405 42.692L57.4811 41.1233C57.0738 40.8012 56.618 40.5586 56.1203 40.3951L55.4962 42.2952ZM56.2449 42.6955C56.4568 42.8612 56.637 43.065 56.7862 43.315L58.5036 42.2901C58.2323 41.8355 57.8898 41.4428 57.4767 41.1199L56.2449 42.6955ZM56.788 43.3181C56.9281 43.551 57.0342 43.832 57.0949 44.1745L59.0642 43.8255C58.9658 43.2702 58.7821 42.753 58.5018 42.287L56.788 43.3181Z" fill="#10B981"/>
<path d="M59.0568 50V41.2727H62.0057C62.6875 41.2727 63.2472 41.3892 63.6847 41.6222C64.1222 41.8523 64.446 42.169 64.6562 42.5724C64.8665 42.9759 64.9716 43.4347 64.9716 43.9489C64.9716 44.4631 64.8665 44.919 64.6562 45.3168C64.446 45.7145 64.1236 46.027 63.6889 46.2543C63.2543 46.4787 62.6989 46.5909 62.0227 46.5909H59.6364V45.6364H61.9886C62.4545 45.6364 62.8295 45.5682 63.1136 45.4318C63.4006 45.2955 63.608 45.1023 63.7358 44.8523C63.8665 44.5994 63.9318 44.2983 63.9318 43.9489C63.9318 43.5994 63.8665 43.294 63.7358 43.0327C63.6051 42.7713 63.3963 42.5696 63.1094 42.4276C62.8224 42.2827 62.4432 42.2102 61.9716 42.2102H60.1136V50H59.0568ZM63.1648 46.0795L65.3125 50H64.0852L61.9716 46.0795H63.1648Z" fill="#10B981"/>
<path d="M59.0568 50H58.0568V51H59.0568V50ZM59.0568 41.2727V40.2727H58.0568V41.2727H59.0568ZM63.6847 41.6222L63.2147 42.5048L63.2191 42.5072L63.6847 41.6222ZM64.6562 42.5724L63.7694 43.0346L63.7694 43.0346L64.6562 42.5724ZM64.6562 45.3168L63.7722 44.8495L63.7722 44.8495L64.6562 45.3168ZM63.6889 46.2543L64.1477 47.1428L64.1523 47.1404L63.6889 46.2543ZM59.6364 46.5909H58.6364V47.5909H59.6364V46.5909ZM59.6364 45.6364V44.6364H58.6364V45.6364H59.6364ZM63.1136 45.4318L62.6844 44.5286L62.6809 44.5303L63.1136 45.4318ZM63.7358 44.8523L62.8474 44.3931L62.8455 44.397L63.7358 44.8523ZM63.1094 42.4276L62.6586 43.3202L62.6657 43.3238L63.1094 42.4276ZM60.1136 42.2102V41.2102H59.1136V42.2102H60.1136ZM60.1136 50V51H61.1136V50H60.1136ZM63.1648 46.0795L64.0418 45.5991L63.7572 45.0795H63.1648V46.0795ZM65.3125 50V51H67.0006L66.1895 49.5195L65.3125 50ZM64.0852 50L63.205 50.4746L63.4883 51H64.0852V50ZM61.9716 46.0795V45.0795H60.2964L61.0914 46.5541L61.9716 46.0795ZM60.0568 50V41.2727H58.0568V50H60.0568ZM59.0568 42.2727H62.0057V40.2727H59.0568V42.2727ZM62.0057 42.2727C62.5821 42.2727 62.9659 42.3724 63.2147 42.5048L64.1547 40.7395C63.5284 40.406 62.7929 40.2727 62.0057 40.2727V42.2727ZM63.2191 42.5072C63.4928 42.6511 63.6615 42.8275 63.7694 43.0346L65.5431 42.1103C65.2305 41.5106 64.7515 41.0534 64.1502 40.7371L63.2191 42.5072ZM63.7694 43.0346C63.8961 43.2776 63.9716 43.5744 63.9716 43.9489H65.9716C65.9716 43.295 65.8369 42.6741 65.5431 42.1103L63.7694 43.0346ZM63.9716 43.9489C63.9716 44.3237 63.896 44.6152 63.7722 44.8495L65.5403 45.7841C65.837 45.2229 65.9716 44.6025 65.9716 43.9489H63.9716ZM63.7722 44.8495C63.6651 45.052 63.4978 45.2258 63.2256 45.3681L64.1523 47.1404C64.7494 46.8282 65.2269 46.377 65.5403 45.7841L63.7722 44.8495ZM63.2301 45.3657C62.981 45.4944 62.597 45.5909 62.0227 45.5909V47.5909C62.8008 47.5909 63.5275 47.463 64.1477 47.1428L63.2301 45.3657ZM62.0227 45.5909H59.6364V47.5909H62.0227V45.5909ZM60.6364 46.5909V45.6364H58.6364V46.5909H60.6364ZM59.6364 46.6364H61.9886V44.6364H59.6364V46.6364ZM61.9886 46.6364C62.5385 46.6364 63.0783 46.558 63.5464 46.3333L62.6809 44.5303C62.5807 44.5784 62.3706 44.6364 61.9886 44.6364V46.6364ZM63.5429 46.335C64.0012 46.1172 64.3851 45.779 64.6261 45.3076L62.8455 44.397C62.8308 44.4256 62.7999 44.4737 62.6844 44.5286L63.5429 46.335ZM64.6242 45.3114C64.8431 44.8879 64.9318 44.4222 64.9318 43.9489H62.9318C62.9318 44.1744 62.8899 44.311 62.8474 44.3931L64.6242 45.3114ZM64.9318 43.9489C64.9318 43.4743 64.8427 43.0103 64.6302 42.5855L62.8414 43.4799C62.8903 43.5778 62.9318 43.7246 62.9318 43.9489H64.9318ZM64.6302 42.5855C64.3928 42.1105 64.0154 41.7602 63.553 41.5314L62.6657 43.3238C62.7773 43.379 62.8175 43.4321 62.8414 43.4799L64.6302 42.5855ZM63.5601 41.5349C63.0835 41.2942 62.5322 41.2102 61.9716 41.2102V43.2102C62.3542 43.2102 62.5614 43.2711 62.6586 43.3202L63.5601 41.5349ZM61.9716 41.2102H60.1136V43.2102H61.9716V41.2102ZM59.1136 42.2102V50H61.1136V42.2102H59.1136ZM60.1136 49H59.0568V51H60.1136V49ZM62.2878 46.56L64.4355 50.4805L66.1895 49.5195L64.0418 45.5991L62.2878 46.56ZM65.3125 49H64.0852V51H65.3125V49ZM64.9655 49.5254L62.8518 45.605L61.0914 46.5541L63.205 50.4746L64.9655 49.5254ZM61.9716 47.0795H63.1648V45.0795H61.9716V47.0795Z" fill="#10B981"/>
<path d="M68.1136 41.2727V50H67.0568V41.2727H68.1136Z" fill="black"/>
<path d="M68.1136 41.2727H69.1136V40.2727H68.1136V41.2727ZM68.1136 50V51H69.1136V50H68.1136ZM67.0568 50H66.0568V51H67.0568V50ZM67.0568 41.2727V40.2727H66.0568V41.2727H67.0568ZM67.1136 41.2727V50H69.1136V41.2727H67.1136ZM68.1136 49H67.0568V51H68.1136V49ZM68.0568 50V41.2727H66.0568V50H68.0568ZM67.0568 42.2727H68.1136V40.2727H67.0568V42.2727Z" fill="#10B981"/>
<path d="M74.8295 43.4545C74.7784 43.0227 74.571 42.6875 74.2074 42.4489C73.8438 42.2102 73.3977 42.0909 72.8693 42.0909C72.483 42.0909 72.1449 42.1534 71.8551 42.2784C71.5682 42.4034 71.3438 42.5753 71.1818 42.794C71.0227 43.0128 70.9432 43.2614 70.9432 43.5398C70.9432 43.7727 70.9986 43.973 71.1094 44.1406C71.223 44.3054 71.3679 44.4432 71.544 44.554C71.7202 44.6619 71.9048 44.7514 72.098 44.8224C72.2912 44.8906 72.4688 44.946 72.6307 44.9886L73.517 45.2273C73.7443 45.2869 73.9972 45.3693 74.2756 45.4744C74.5568 45.5795 74.8253 45.723 75.081 45.9048C75.3395 46.0838 75.5526 46.3139 75.7202 46.5952C75.8878 46.8764 75.9716 47.2216 75.9716 47.6307C75.9716 48.1023 75.848 48.5284 75.6009 48.9091C75.3565 49.2898 74.9986 49.5923 74.527 49.8168C74.0582 50.0412 73.4886 50.1534 72.8182 50.1534C72.1932 50.1534 71.652 50.0526 71.1946 49.8509C70.7401 49.6491 70.3821 49.3679 70.1207 49.0071C69.8622 48.6463 69.7159 48.2273 69.6818 47.75H70.7727C70.8011 48.0795 70.9119 48.3523 71.1051 48.5682C71.3011 48.7812 71.5483 48.9403 71.8466 49.0455C72.1477 49.1477 72.4716 49.1989 72.8182 49.1989C73.2216 49.1989 73.5838 49.1335 73.9048 49.0028C74.2259 48.8693 74.4801 48.6847 74.6676 48.4489C74.8551 48.2102 74.9489 47.9318 74.9489 47.6136C74.9489 47.3239 74.8679 47.0881 74.706 46.9062C74.544 46.7244 74.331 46.5767 74.0668 46.4631C73.8026 46.3494 73.517 46.25 73.2102 46.1648L72.1364 45.858C71.4545 45.6619 70.9148 45.3821 70.517 45.0185C70.1193 44.6548 69.9205 44.179 69.9205 43.5909C69.9205 43.1023 70.0526 42.6761 70.3168 42.3125C70.5838 41.946 70.9418 41.6619 71.3906 41.4602C71.8423 41.2557 72.3466 41.1534 72.9034 41.1534C73.4659 41.1534 73.9659 41.2543 74.4034 41.456C74.8409 41.6548 75.1875 41.9276 75.4432 42.2741C75.7017 42.6207 75.8381 43.0142 75.8523 43.4545H74.8295Z" fill="black"/>
<path d="M74.8295 43.4545L73.8365 43.5721L73.941 44.4545H74.8295V43.4545ZM74.2074 42.4489L73.6587 43.2849L73.6587 43.2849L74.2074 42.4489ZM71.8551 42.2784L71.459 41.3602L71.4557 41.3616L71.8551 42.2784ZM71.1818 42.794L70.378 42.199L70.3731 42.2059L71.1818 42.794ZM71.1094 44.1406L70.2752 44.6921L70.2806 44.7003L70.2862 44.7084L71.1094 44.1406ZM71.544 44.554L71.0115 45.4005L71.0215 45.4066L71.544 44.554ZM72.098 44.8224L71.7529 45.7611L71.7652 45.7654L72.098 44.8224ZM72.6307 44.9886L72.8907 44.023L72.8852 44.0216L72.6307 44.9886ZM73.517 45.2273L73.2571 46.1929L73.2631 46.1945L73.517 45.2273ZM74.2756 45.4744L73.9224 46.41L73.9255 46.4111L74.2756 45.4744ZM75.081 45.9048L74.5014 46.7198L74.5118 46.727L75.081 45.9048ZM75.7202 46.5952L76.5792 46.0832L76.5792 46.0832L75.7202 46.5952ZM75.6009 48.9091L74.7621 48.3645L74.7593 48.369L75.6009 48.9091ZM74.527 49.8168L74.0973 48.9138L74.0951 48.9148L74.527 49.8168ZM71.1946 49.8509L70.789 50.7649L70.7911 50.7658L71.1946 49.8509ZM70.1207 49.0071L69.3079 49.5896L69.3109 49.5938L70.1207 49.0071ZM69.6818 47.75V46.75H68.6078L68.6844 47.8212L69.6818 47.75ZM70.7727 47.75L71.769 47.6641L71.6902 46.75H70.7727V47.75ZM71.1051 48.5682L70.3598 49.235L70.3692 49.2452L71.1051 48.5682ZM71.8466 49.0455L71.5142 49.9887L71.525 49.9923L71.8466 49.0455ZM73.9048 49.0028L74.2819 49.9291L74.2889 49.9262L73.9048 49.0028ZM74.6676 48.4489L75.4503 49.0713L75.4539 49.0667L74.6676 48.4489ZM74.706 46.9062L75.4527 46.2412L75.4527 46.2412L74.706 46.9062ZM74.0668 46.4631L73.6716 47.3817L73.6717 47.3817L74.0668 46.4631ZM73.2102 46.1648L72.9355 47.1263L72.9426 47.1283L73.2102 46.1648ZM72.1364 45.858L71.8601 46.819L71.8616 46.8195L72.1364 45.858ZM70.517 45.0185L69.8423 45.7565L69.8423 45.7565L70.517 45.0185ZM70.3168 42.3125L69.5086 41.7236L69.5078 41.7247L70.3168 42.3125ZM71.3906 41.4602L71.8005 42.3724L71.8031 42.3712L71.3906 41.4602ZM74.4034 41.456L73.9847 42.3641L73.9896 42.3663L74.4034 41.456ZM75.4432 42.2741L74.6384 42.8678L74.6416 42.872L75.4432 42.2741ZM75.8523 43.4545V44.4545H76.8851L76.8518 43.4223L75.8523 43.4545ZM75.8226 43.3369C75.7367 42.6117 75.3666 42.0135 74.756 41.6128L73.6587 43.2849C73.7755 43.3615 73.8201 43.4338 73.8365 43.5721L75.8226 43.3369ZM74.756 41.6128C74.1973 41.2462 73.5504 41.0909 72.8693 41.0909V43.0909C73.2451 43.0909 73.4902 43.1743 73.6587 43.2849L74.756 41.6128ZM72.8693 41.0909C72.3765 41.0909 71.8986 41.1706 71.459 41.3602L72.2512 43.1966C72.3912 43.1362 72.5894 43.0909 72.8693 43.0909V41.0909ZM71.4557 41.3616C71.0326 41.546 70.6591 41.8195 70.3781 42.1991L71.9856 43.389C72.0284 43.3311 72.1038 43.2608 72.2545 43.1952L71.4557 41.3616ZM70.3731 42.2059C70.0858 42.6008 69.9432 43.0567 69.9432 43.5398H71.9432C71.9432 43.4661 71.9596 43.4247 71.9906 43.3822L70.3731 42.2059ZM69.9432 43.5398C69.9432 43.9368 70.0398 44.336 70.2752 44.6921L71.9436 43.5892C71.948 43.5959 71.9492 43.6006 71.9485 43.5981C71.9476 43.5946 71.9432 43.5769 71.9432 43.5398H69.9432ZM70.2862 44.7084C70.4799 44.9892 70.7253 45.2203 71.0116 45.4004L72.0765 43.7075C72.0105 43.666 71.9662 43.6216 71.9326 43.5729L70.2862 44.7084ZM71.0215 45.4066C71.2536 45.5488 71.4977 45.6672 71.7529 45.761L72.4431 43.8839C72.312 43.8357 72.1868 43.775 72.0666 43.7014L71.0215 45.4066ZM71.7652 45.7654C71.9787 45.8408 72.1828 45.9048 72.3762 45.9557L72.8852 44.0216C72.7547 43.9872 72.6037 43.9405 72.4308 43.8795L71.7652 45.7654ZM72.3707 45.9543L73.2571 46.1929L73.777 44.2617L72.8907 44.023L72.3707 45.9543ZM73.2631 46.1945C73.4493 46.2434 73.6684 46.3141 73.9224 46.41L74.6288 44.5389C74.326 44.4246 74.0393 44.3305 73.7709 44.26L73.2631 46.1945ZM73.9255 46.4111C74.1217 46.4845 74.3134 46.5861 74.5014 46.7198L75.6605 45.0899C75.3371 44.8599 74.9919 44.6746 74.6257 44.5377L73.9255 46.4111ZM74.5118 46.727C74.6477 46.8211 74.7637 46.9436 74.8612 47.1071L76.5792 46.0832C76.3414 45.6842 76.0313 45.3465 75.6502 45.0826L74.5118 46.727ZM74.8612 47.1071C74.9161 47.1993 74.9716 47.3573 74.9716 47.6307H76.9716C76.9716 47.0859 76.8595 46.5536 76.5792 46.0832L74.8612 47.1071ZM74.9716 47.6307C74.9716 47.9169 74.8998 48.1525 74.7621 48.3645L76.4396 49.4536C76.7962 48.9043 76.9716 48.2876 76.9716 47.6307H74.9716ZM74.7593 48.369C74.6305 48.5696 74.427 48.7569 74.0973 48.9138L74.9567 50.7197C75.5702 50.4278 76.0826 50.0099 76.4424 49.4492L74.7593 48.369ZM74.0951 48.9148C73.7944 49.0588 73.381 49.1534 72.8182 49.1534V51.1534C73.5963 51.1534 74.3221 51.0236 74.9588 50.7187L74.0951 48.9148ZM72.8182 49.1534C72.2984 49.1534 71.9008 49.0693 71.5981 48.9359L70.7911 50.7658C71.4032 51.0358 72.0879 51.1534 72.8182 51.1534V49.1534ZM71.6002 48.9368C71.2877 48.7982 71.0768 48.6223 70.9306 48.4204L69.3109 49.5938C69.6874 50.1135 70.1924 50.5001 70.789 50.7649L71.6002 48.9368ZM70.9336 48.4247C70.791 48.2257 70.7013 47.9868 70.6793 47.6788L68.6844 47.8212C68.7305 48.4678 68.9334 49.0669 69.3079 49.5896L70.9336 48.4247ZM69.6818 48.75H70.7727V46.75H69.6818V48.75ZM69.7764 47.8359C69.8207 48.3492 70.0023 48.8354 70.3599 49.235L71.8504 47.9014C71.8215 47.8692 71.7816 47.8099 71.769 47.6641L69.7764 47.8359ZM70.3692 49.2452C70.686 49.5896 71.0763 49.8343 71.5142 49.9886L72.1789 48.1023C72.0203 48.0464 71.9163 47.9729 71.841 47.8911L70.3692 49.2452ZM71.525 49.9923C71.9386 50.1328 72.372 50.1989 72.8182 50.1989V48.1989C72.5712 48.1989 72.3569 48.1627 72.1682 48.0986L71.525 49.9923ZM72.8182 50.1989C73.33 50.1989 73.8232 50.1158 74.2819 49.929L73.5278 48.0766C73.3444 48.1513 73.1132 48.1989 72.8182 48.1989V50.1989ZM74.2889 49.9262C74.7418 49.7378 75.1423 49.4586 75.4503 49.0713L73.8849 47.8265C73.8179 47.9107 73.7099 48.0009 73.5208 48.0795L74.2889 49.9262ZM75.4539 49.0667C75.7869 48.6429 75.9489 48.1442 75.9489 47.6136H73.9489C73.9489 47.7194 73.9233 47.7776 73.8813 47.831L75.4539 49.0667ZM75.9489 47.6136C75.9489 47.1278 75.8078 46.6398 75.4527 46.2412L73.9592 47.5713C73.9555 47.5672 73.9514 47.5617 73.9478 47.5555C73.9443 47.5494 73.9427 47.5451 73.9423 47.5442C73.9416 47.5422 73.9489 47.5617 73.9489 47.6136H75.9489ZM75.4527 46.2412C75.1775 45.9321 74.8363 45.7055 74.4619 45.5444L73.6717 47.3817C73.8256 47.4479 73.9106 47.5168 73.9592 47.5713L75.4527 46.2412ZM74.4619 45.5444C74.1521 45.4112 73.8236 45.2973 73.4779 45.2013L72.9426 47.1283C73.2105 47.2027 73.453 47.2877 73.6716 47.3817L74.4619 45.5444ZM73.4849 45.2032L72.4111 44.8964L71.8616 46.8195L72.9355 47.1263L73.4849 45.2032ZM72.4127 44.8969C71.8341 44.7305 71.4455 44.5124 71.1918 44.2804L69.8423 45.7565C70.384 46.2518 71.075 46.5933 71.8601 46.819L72.4127 44.8969ZM71.1918 44.2804C71.0215 44.1247 70.9205 43.9268 70.9205 43.5909H68.9205C68.9205 44.4311 69.2171 45.1849 69.8423 45.7565L71.1918 44.2804ZM70.9205 43.5909C70.9205 43.294 70.9966 43.078 71.1258 42.9003L69.5078 41.7247C69.1085 42.2742 68.9205 42.9105 68.9205 43.5909H70.9205ZM71.125 42.9014C71.281 42.6873 71.4963 42.5091 71.8005 42.3724L70.9807 40.5481C70.3872 40.8148 69.8867 41.2047 69.5086 41.7236L71.125 42.9014ZM71.8031 42.3712C72.1102 42.2322 72.4713 42.1534 72.9034 42.1534V40.1534C72.2219 40.1534 71.5745 40.2792 70.9781 40.5493L71.8031 42.3712ZM72.9034 42.1534C73.3454 42.1534 73.6987 42.2322 73.9847 42.3641L74.8221 40.5478C74.2331 40.2763 73.5864 40.1534 72.9034 40.1534V42.1534ZM73.9896 42.3663C74.2903 42.503 74.4953 42.6737 74.6385 42.8678L76.2479 41.6805C75.8797 41.1814 75.3916 40.8067 74.8172 40.5456L73.9896 42.3663ZM74.6416 42.872C74.7754 43.0515 74.845 43.2467 74.8528 43.4868L76.8518 43.4223C76.8311 42.7817 76.628 42.19 76.2448 41.6763L74.6416 42.872ZM75.8523 42.4545H74.8295V44.4545H75.8523V42.4545Z" fill="#10B981"/>
<path d="M84.8295 43.4545C84.7784 43.0227 84.571 42.6875 84.2074 42.4489C83.8438 42.2102 83.3977 42.0909 82.8693 42.0909C82.483 42.0909 82.1449 42.1534 81.8551 42.2784C81.5682 42.4034 81.3438 42.5753 81.1818 42.794C81.0227 43.0128 80.9432 43.2614 80.9432 43.5398C80.9432 43.7727 80.9986 43.973 81.1094 44.1406C81.223 44.3054 81.3679 44.4432 81.544 44.554C81.7202 44.6619 81.9048 44.7514 82.098 44.8224C82.2912 44.8906 82.4688 44.946 82.6307 44.9886L83.517 45.2273C83.7443 45.2869 83.9972 45.3693 84.2756 45.4744C84.5568 45.5795 84.8253 45.723 85.081 45.9048C85.3395 46.0838 85.5526 46.3139 85.7202 46.5952C85.8878 46.8764 85.9716 47.2216 85.9716 47.6307C85.9716 48.1023 85.848 48.5284 85.6009 48.9091C85.3565 49.2898 84.9986 49.5923 84.527 49.8168C84.0582 50.0412 83.4886 50.1534 82.8182 50.1534C82.1932 50.1534 81.652 50.0526 81.1946 49.8509C80.7401 49.6491 80.3821 49.3679 80.1207 49.0071C79.8622 48.6463 79.7159 48.2273 79.6818 47.75H80.7727C80.8011 48.0795 80.9119 48.3523 81.1051 48.5682C81.3011 48.7812 81.5483 48.9403 81.8466 49.0455C82.1477 49.1477 82.4716 49.1989 82.8182 49.1989C83.2216 49.1989 83.5838 49.1335 83.9048 49.0028C84.2259 48.8693 84.4801 48.6847 84.6676 48.4489C84.8551 48.2102 84.9489 47.9318 84.9489 47.6136C84.9489 47.3239 84.8679 47.0881 84.706 46.9062C84.544 46.7244 84.331 46.5767 84.0668 46.4631C83.8026 46.3494 83.517 46.25 83.2102 46.1648L82.1364 45.858C81.4545 45.6619 80.9148 45.3821 80.517 45.0185C80.1193 44.6548 79.9205 44.179 79.9205 43.5909C79.9205 43.1023 80.0526 42.6761 80.3168 42.3125C80.5838 41.946 80.9418 41.6619 81.3906 41.4602C81.8423 41.2557 82.3466 41.1534 82.9034 41.1534C83.4659 41.1534 83.9659 41.2543 84.4034 41.456C84.8409 41.6548 85.1875 41.9276 85.4432 42.2741C85.7017 42.6207 85.8381 43.0142 85.8523 43.4545H84.8295Z" fill="black"/>
<path d="M84.8295 43.4545L83.8365 43.5721L83.941 44.4545H84.8295V43.4545ZM84.2074 42.4489L83.6587 43.2849L83.6587 43.2849L84.2074 42.4489ZM81.8551 42.2784L81.459 41.3602L81.4557 41.3616L81.8551 42.2784ZM81.1818 42.794L80.378 42.199L80.3731 42.2059L81.1818 42.794ZM81.1094 44.1406L80.2752 44.6921L80.2806 44.7003L80.2862 44.7084L81.1094 44.1406ZM81.544 44.554L81.0115 45.4005L81.0215 45.4066L81.544 44.554ZM82.098 44.8224L81.7529 45.7611L81.7652 45.7654L82.098 44.8224ZM82.6307 44.9886L82.8907 44.023L82.8852 44.0216L82.6307 44.9886ZM83.517 45.2273L83.2571 46.1929L83.2631 46.1945L83.517 45.2273ZM84.2756 45.4744L83.9224 46.41L83.9255 46.4111L84.2756 45.4744ZM85.081 45.9048L84.5014 46.7198L84.5118 46.727L85.081 45.9048ZM85.7202 46.5952L86.5792 46.0832L86.5792 46.0832L85.7202 46.5952ZM85.6009 48.9091L84.7621 48.3645L84.7593 48.369L85.6009 48.9091ZM84.527 49.8168L84.0973 48.9138L84.0951 48.9148L84.527 49.8168ZM81.1946 49.8509L80.789 50.7649L80.7911 50.7658L81.1946 49.8509ZM80.1207 49.0071L79.3079 49.5896L79.3109 49.5938L80.1207 49.0071ZM79.6818 47.75V46.75H78.6078L78.6844 47.8212L79.6818 47.75ZM80.7727 47.75L81.769 47.6641L81.6902 46.75H80.7727V47.75ZM81.1051 48.5682L80.3598 49.235L80.3692 49.2452L81.1051 48.5682ZM81.8466 49.0455L81.5142 49.9887L81.525 49.9923L81.8466 49.0455ZM83.9048 49.0028L84.2819 49.9291L84.2889 49.9262L83.9048 49.0028ZM84.6676 48.4489L85.4503 49.0713L85.4539 49.0667L84.6676 48.4489ZM84.706 46.9062L85.4527 46.2412L85.4527 46.2412L84.706 46.9062ZM84.0668 46.4631L83.6716 47.3817L83.6717 47.3817L84.0668 46.4631ZM83.2102 46.1648L82.9355 47.1263L82.9426 47.1283L83.2102 46.1648ZM82.1364 45.858L81.8601 46.819L81.8616 46.8195L82.1364 45.858ZM80.517 45.0185L79.8423 45.7565L79.8423 45.7565L80.517 45.0185ZM80.3168 42.3125L79.5086 41.7236L79.5078 41.7247L80.3168 42.3125ZM81.3906 41.4602L81.8005 42.3724L81.8031 42.3712L81.3906 41.4602ZM84.4034 41.456L83.9847 42.3641L83.9896 42.3663L84.4034 41.456ZM85.4432 42.2741L84.6384 42.8678L84.6416 42.872L85.4432 42.2741ZM85.8523 43.4545V44.4545H86.8851L86.8518 43.4223L85.8523 43.4545ZM85.8226 43.3369C85.7367 42.6117 85.3666 42.0135 84.756 41.6128L83.6587 43.2849C83.7755 43.3615 83.8201 43.4338 83.8365 43.5721L85.8226 43.3369ZM84.756 41.6128C84.1973 41.2462 83.5504 41.0909 82.8693 41.0909V43.0909C83.2451 43.0909 83.4902 43.1743 83.6587 43.2849L84.756 41.6128ZM82.8693 41.0909C82.3765 41.0909 81.8986 41.1706 81.459 41.3602L82.2512 43.1966C82.3912 43.1362 82.5894 43.0909 82.8693 43.0909V41.0909ZM81.4557 41.3616C81.0326 41.546 80.6591 41.8195 80.3781 42.1991L81.9856 43.389C82.0284 43.3311 82.1038 43.2608 82.2545 43.1952L81.4557 41.3616ZM80.3731 42.2059C80.0858 42.6008 79.9432 43.0567 79.9432 43.5398H81.9432C81.9432 43.4661 81.9596 43.4247 81.9906 43.3822L80.3731 42.2059ZM79.9432 43.5398C79.9432 43.9368 80.0398 44.336 80.2752 44.6921L81.9436 43.5892C81.948 43.5959 81.9492 43.6006 81.9485 43.5981C81.9476 43.5946 81.9432 43.5769 81.9432 43.5398H79.9432ZM80.2862 44.7084C80.4799 44.9892 80.7253 45.2203 81.0116 45.4004L82.0765 43.7075C82.0105 43.666 81.9662 43.6216 81.9326 43.5729L80.2862 44.7084ZM81.0215 45.4066C81.2536 45.5488 81.4977 45.6672 81.7529 45.761L82.4431 43.8839C82.312 43.8357 82.1868 43.775 82.0666 43.7014L81.0215 45.4066ZM81.7652 45.7654C81.9787 45.8408 82.1828 45.9048 82.3762 45.9557L82.8852 44.0216C82.7547 43.9872 82.6037 43.9405 82.4308 43.8795L81.7652 45.7654ZM82.3707 45.9543L83.2571 46.1929L83.777 44.2617L82.8907 44.023L82.3707 45.9543ZM83.2631 46.1945C83.4493 46.2434 83.6684 46.3141 83.9224 46.41L84.6288 44.5389C84.326 44.4246 84.0393 44.3305 83.7709 44.26L83.2631 46.1945ZM83.9255 46.4111C84.1217 46.4845 84.3134 46.5861 84.5014 46.7198L85.6605 45.0899C85.3371 44.8599 84.9919 44.6746 84.6257 44.5377L83.9255 46.4111ZM84.5118 46.727C84.6477 46.8211 84.7637 46.9436 84.8612 47.1071L86.5792 46.0832C86.3414 45.6842 86.0313 45.3465 85.6502 45.0826L84.5118 46.727ZM84.8612 47.1071C84.9161 47.1993 84.9716 47.3573 84.9716 47.6307H86.9716C86.9716 47.0859 86.8595 46.5536 86.5792 46.0832L84.8612 47.1071ZM84.9716 47.6307C84.9716 47.9169 84.8998 48.1525 84.7621 48.3645L86.4396 49.4536C86.7962 48.9043 86.9716 48.2876 86.9716 47.6307H84.9716ZM84.7593 48.369C84.6305 48.5696 84.427 48.7569 84.0973 48.9138L84.9567 50.7197C85.5702 50.4278 86.0826 50.0099 86.4424 49.4492L84.7593 48.369ZM84.0951 48.9148C83.7944 49.0588 83.381 49.1534 82.8182 49.1534V51.1534C83.5963 51.1534 84.3221 51.0236 84.9588 50.7187L84.0951 48.9148ZM82.8182 49.1534C82.2984 49.1534 81.9008 49.0693 81.5981 48.9359L80.7911 50.7658C81.4032 51.0358 82.0879 51.1534 82.8182 51.1534V49.1534ZM81.6002 48.9368C81.2877 48.7982 81.0768 48.6223 80.9306 48.4204L79.3109 49.5938C79.6874 50.1135 80.1924 50.5001 80.789 50.7649L81.6002 48.9368ZM80.9336 48.4247C80.791 48.2257 80.7013 47.9868 80.6793 47.6788L78.6844 47.8212C78.7305 48.4678 78.9334 49.0669 79.3079 49.5896L80.9336 48.4247ZM79.6818 48.75H80.7727V46.75H79.6818V48.75ZM79.7764 47.8359C79.8207 48.3492 80.0023 48.8354 80.3599 49.235L81.8504 47.9014C81.8215 47.8692 81.7816 47.8099 81.769 47.6641L79.7764 47.8359ZM80.3692 49.2452C80.686 49.5896 81.0763 49.8343 81.5142 49.9886L82.1789 48.1023C82.0203 48.0464 81.9163 47.9729 81.841 47.8911L80.3692 49.2452ZM81.525 49.9923C81.9386 50.1328 82.372 50.1989 82.8182 50.1989V48.1989C82.5712 48.1989 82.3569 48.1627 82.1682 48.0986L81.525 49.9923ZM82.8182 50.1989C83.33 50.1989 83.8232 50.1158 84.2819 49.929L83.5278 48.0766C83.3444 48.1513 83.1132 48.1989 82.8182 48.1989V50.1989ZM84.2889 49.9262C84.7418 49.7378 85.1423 49.4586 85.4503 49.0713L83.8849 47.8265C83.8179 47.9107 83.7099 48.0009 83.5208 48.0795L84.2889 49.9262ZM85.4539 49.0667C85.7869 48.6429 85.9489 48.1442 85.9489 47.6136H83.9489C83.9489 47.7194 83.9233 47.7776 83.8813 47.831L85.4539 49.0667ZM85.9489 47.6136C85.9489 47.1278 85.8078 46.6398 85.4527 46.2412L83.9592 47.5713C83.9555 47.5672 83.9514 47.5617 83.9478 47.5555C83.9443 47.5494 83.9427 47.5451 83.9423 47.5442C83.9416 47.5422 83.9489 47.5617 83.9489 47.6136H85.9489ZM85.4527 46.2412C85.1775 45.9321 84.8363 45.7055 84.4619 45.5444L83.6717 47.3817C83.8256 47.4479 83.9106 47.5168 83.9592 47.5713L85.4527 46.2412ZM84.4619 45.5444C84.1521 45.4112 83.8236 45.2973 83.4779 45.2013L82.9426 47.1283C83.2105 47.2027 83.453 47.2877 83.6716 47.3817L84.4619 45.5444ZM83.4849 45.2032L82.4111 44.8964L81.8616 46.8195L82.9355 47.1263L83.4849 45.2032ZM82.4127 44.8969C81.8341 44.7305 81.4455 44.5124 81.1918 44.2804L79.8423 45.7565C80.384 46.2518 81.075 46.5933 81.8601 46.819L82.4127 44.8969ZM81.1918 44.2804C81.0215 44.1247 80.9205 43.9268 80.9205 43.5909H78.9205C78.9205 44.4311 79.2171 45.1849 79.8423 45.7565L81.1918 44.2804ZM80.9205 43.5909C80.9205 43.294 80.9966 43.078 81.1258 42.9003L79.5078 41.7247C79.1085 42.2742 78.9205 42.9105 78.9205 43.5909H80.9205ZM81.125 42.9014C81.281 42.6873 81.4963 42.5091 81.8005 42.3724L80.9807 40.5481C80.3872 40.8148 79.8867 41.2047 79.5086 41.7236L81.125 42.9014ZM81.8031 42.3712C82.1102 42.2322 82.4713 42.1534 82.9034 42.1534V40.1534C82.2219 40.1534 81.5745 40.2792 80.9781 40.5493L81.8031 42.3712ZM82.9034 42.1534C83.3454 42.1534 83.6987 42.2322 83.9847 42.3641L84.8221 40.5478C84.2331 40.2763 83.5864 40.1534 82.9034 40.1534V42.1534ZM83.9896 42.3663C84.2903 42.503 84.4953 42.6737 84.6385 42.8678L86.2479 41.6805C85.8797 41.1814 85.3916 40.8067 84.8172 40.5456L83.9896 42.3663ZM84.6416 42.872C84.7754 43.0515 84.845 43.2467 84.8528 43.4868L86.8518 43.4223C86.8311 42.7817 86.628 42.19 86.2448 41.6763L84.6416 42.872ZM85.8523 42.4545H84.8295V44.4545H85.8523V42.4545Z" fill="#10B981"/>
<path d="M13.0568 12V3.27273H14.1136V11.0625H18.1705V12H13.0568Z" fill="#10B981"/>
<path d="M13.0568 12H12.0568V13H13.0568V12ZM13.0568 3.27273V2.27273H12.0568V3.27273H13.0568ZM14.1136 3.27273H15.1136V2.27273H14.1136V3.27273ZM14.1136 11.0625H13.1136V12.0625H14.1136V11.0625ZM18.1705 11.0625H19.1705V10.0625H18.1705V11.0625ZM18.1705 12V13H19.1705V12H18.1705ZM14.0568 12V3.27273H12.0568V12H14.0568ZM13.0568 4.27273H14.1136V2.27273H13.0568V4.27273ZM13.1136 3.27273V11.0625H15.1136V3.27273H13.1136ZM14.1136 12.0625H18.1705V10.0625H14.1136V12.0625ZM17.1705 11.0625V12H19.1705V11.0625H17.1705ZM18.1705 11H13.0568V13H18.1705V11Z" fill="#10B981"/>
<path d="M6.05682 12V3.27273H9.00568C9.69034 3.27273 10.25 3.39631 10.6847 3.64347C11.1222 3.88778 11.446 4.21875 11.6562 4.63636C11.8665 5.05398 11.9716 5.51989 11.9716 6.03409C11.9716 6.5483 11.8665 7.01562 11.6562 7.43608C11.4489 7.85653 11.1278 8.19176 10.6932 8.44176C10.2585 8.68892 9.7017 8.8125 9.02273 8.8125H6.90909V7.875H8.98864C9.45739 7.875 9.83381 7.79403 10.1179 7.6321C10.402 7.47017 10.608 7.25142 10.7358 6.97585C10.8665 6.69744 10.9318 6.38352 10.9318 6.03409C10.9318 5.68466 10.8665 5.37216 10.7358 5.09659C10.608 4.82102 10.4006 4.60511 10.1136 4.44886C9.8267 4.28977 9.44602 4.21023 8.97159 4.21023H7.11364V12H6.05682Z" fill="black"/>
<path d="M6.05682 12H5.05682V13H6.05682V12ZM6.05682 3.27273V2.27273H5.05682V3.27273H6.05682ZM10.6847 3.64347L10.1903 4.51278L10.1971 4.51655L10.6847 3.64347ZM11.6562 4.63636L10.763 5.08601L10.763 5.08601L11.6562 4.63636ZM11.6562 7.43608L10.7618 6.98886L10.7594 6.99372L11.6562 7.43608ZM10.6932 8.44176L11.1875 9.31106L11.1918 9.30861L10.6932 8.44176ZM6.90909 8.8125H5.90909V9.8125H6.90909V8.8125ZM6.90909 7.875V6.875H5.90909V7.875H6.90909ZM10.1179 7.6321L9.62269 6.76332L9.62269 6.76332L10.1179 7.6321ZM10.7358 6.97585L9.83055 6.55094L9.82866 6.55502L10.7358 6.97585ZM10.7358 5.09659L9.82863 5.51744L9.83225 5.52508L10.7358 5.09659ZM10.1136 4.44886L9.62871 5.32345L9.63539 5.32709L10.1136 4.44886ZM7.11364 4.21023V3.21023H6.11364V4.21023H7.11364ZM7.11364 12V13H8.11364V12H7.11364ZM7.05682 12V3.27273H5.05682V12H7.05682ZM6.05682 4.27273H9.00568V2.27273H6.05682V4.27273ZM9.00568 4.27273C9.57825 4.27273 9.95188 4.37715 10.1904 4.51276L11.179 2.77418C10.5481 2.41546 9.80243 2.27273 9.00568 2.27273V4.27273ZM10.1971 4.51655C10.4733 4.67078 10.6492 4.85991 10.763 5.08601L12.5495 4.18672C12.2428 3.57759 11.7711 3.10479 11.1722 2.77038L10.1971 4.51655ZM10.763 5.08601C10.8963 5.35064 10.9716 5.66021 10.9716 6.03409H12.9716C12.9716 5.37956 12.8367 4.75731 12.5495 4.18672L10.763 5.08601ZM10.9716 6.03409C10.9716 6.40787 10.8963 6.71994 10.7618 6.98887L12.5507 7.88329C12.8367 7.31131 12.9716 6.68872 12.9716 6.03409H10.9716ZM10.7594 6.99372C10.6459 7.22376 10.4699 7.41657 10.1946 7.57492L11.1918 9.30861C11.7858 8.96695 12.2518 8.48931 12.5531 7.87844L10.7594 6.99372ZM10.1989 7.57247C9.95931 7.7087 9.5879 7.8125 9.02273 7.8125V9.8125C9.81551 9.8125 10.5577 9.66915 11.1875 9.31105L10.1989 7.57247ZM9.02273 7.8125H6.90909V9.8125H9.02273V7.8125ZM7.90909 8.8125V7.875H5.90909V8.8125H7.90909ZM6.90909 8.875H8.98864V6.875H6.90909V8.875ZM8.98864 8.875C9.56022 8.875 10.1267 8.77815 10.6131 8.50088L9.62269 6.76332C9.54095 6.80992 9.35455 6.875 8.98864 6.875V8.875ZM10.6131 8.50088C11.0631 8.24436 11.4209 7.8754 11.6429 7.39669L9.82866 6.55502C9.79506 6.62744 9.74084 6.69598 9.62269 6.76332L10.6131 8.50088ZM11.641 7.40076C11.8421 6.97237 11.9318 6.51036 11.9318 6.03409H9.93182C9.93182 6.25668 9.89084 6.42251 9.83056 6.55094L11.641 7.40076ZM11.9318 6.03409C11.9318 5.55805 11.8422 5.09583 11.6393 4.6681L9.83225 5.52508C9.89077 5.64849 9.93182 5.81127 9.93182 6.03409H11.9318ZM11.6429 4.67575C11.4179 4.19066 11.052 3.82121 10.5919 3.57064L9.63539 5.32709C9.7491 5.38901 9.79802 5.45138 9.82866 5.51743L11.6429 4.67575ZM10.5985 3.5743C10.1117 3.30434 9.54487 3.21023 8.97159 3.21023V5.21023C9.34717 5.21023 9.54176 5.27521 9.62873 5.32343L10.5985 3.5743ZM8.97159 3.21023H7.11364V5.21023H8.97159V3.21023ZM6.11364 4.21023V12H8.11364V4.21023H6.11364ZM7.11364 11H6.05682V13H7.11364V11Z" fill="#10B981"/>
</svg>
